<?xml version="1.0" encoding="UTF-8"?>
<svg version="1.1" xmlns="http://www.w3.org/2000/svg" width="861" height="831">
<path d="M0 0 C284.13 0 568.26 0 861 0 C861 274.23 861 548.46 861 831 C576.87 831 292.74 831 0 831 C0 556.77 0 282.54 0 0 Z " fill="none" transform="translate(0,0)"/>
<path d="M0 0 C20.19971013 19.84718465 37.92305731 49.12079786 38.22438049 78.08200073 C38.24188924 80.26306835 38.24823871 82.44386455 38.25 84.625 C38.25067474 85.36886963 38.25134949 86.11273926 38.25204468 86.87915039 C38.2353097 98.47914925 37.72612888 109.68495521 35 121 C34.75056641 122.05598389 34.75056641 122.05598389 34.49609375 123.13330078 C28.6570346 146.95990602 15.97218787 168.0025515 2.87890625 188.47265625 C-0.82301581 194.26797798 -4.35548839 200.15755307 -7.85400391 206.07714844 C-9.09988223 208.16759106 -10.36744977 210.24399654 -11.63671875 212.3203125 C-19.48386237 225.23706397 -25.95581923 236.92392553 -22.41015625 252.609375 C-20.04152477 258.94027942 -15.67417988 263.44881259 -10 267 C1.96069589 272.2703815 15.17913455 274.55809957 27.828125 270.09375 C35.3939892 266.28360256 42.3655872 256.90323839 45 249 C47.2388933 229.13781799 34.32118991 211.14162132 23.16186523 195.84643555 C20.13424154 191.69286533 17.46922143 187.51028807 15 183 C15.4846875 182.51273438 15.969375 182.02546875 16.46875 181.5234375 C37.94873319 158.80422451 44.95595778 123.79431151 50 94 C52.73494699 96.44279102 54.29932577 99.07559972 56.046875 102.28515625 C56.63654053 103.35950928 57.22620605 104.4338623 57.83374023 105.54077148 C58.14528046 106.113508 58.45682068 106.68624451 58.77780151 107.27633667 C60.45059162 110.34965594 62.14169322 113.41286974 63.83203125 116.4765625 C64.35296104 117.42174995 64.35296104 117.42174995 64.88441467 118.3860321 C68.32464015 124.61471759 71.86875703 130.78163187 75.4375 136.9375 C76.05125488 137.99767334 76.66500977 139.05784668 77.29736328 140.15014648 C78.55429074 142.32109904 79.81145393 144.49191512 81.06884766 146.66259766 C91.65652356 164.96013616 102.06983105 183.33467938 112 202 C112.55848633 203.04317383 113.11697266 204.08634766 113.69238281 205.16113281 C131.89519837 239.22300945 147.15315988 273.46394042 135.96875 312.609375 C126.92097665 337.67415252 107.35941018 359.27372635 84 372 C83.34 372 82.68 372 82 372 C82.32484375 370.73285156 82.6496875 369.46570313 82.984375 368.16015625 C84.15129689 362.88323651 84.30526062 357.82541017 84.25 352.4375 C84.23984863 350.99721436 84.23984863 350.99721436 84.22949219 349.52783203 C83.95611108 330.45155272 80.94145838 312.82261608 68 298 C65.85217259 296.07838971 63.59786989 294.31685017 61.3125 292.5625 C60.73822266 292.11068359 60.16394531 291.65886719 59.57226562 291.19335938 C58.4033082 290.28474307 57.22152633 289.39236006 56.02687073 288.51780701 C54.71416725 287.53479881 53.43168818 286.50951128 52.19017029 285.43800354 C45.24929119 279.95399902 38.45677948 280.1521012 29.921875 280.2734375 C28.4637248 280.27447767 27.00557178 280.2734308 25.54742432 280.27041626 C22.5010756 280.27059486 19.4557947 280.2912633 16.40966797 280.32763672 C12.54216808 280.37284929 8.67623521 280.37412065 4.80854416 280.36060143 C1.79860995 280.35385222 -1.21097975 280.36731328 -4.22084808 280.38685989 C-5.64470353 280.39445737 -7.0685977 280.39690556 -8.49246979 280.3936882 C-23.68759559 280.38794916 -37.2380292 283.79438865 -48.75 294.125 C-59.20323508 305.34250463 -61.71123665 320.60689025 -61.2890625 335.33984375 C-60.72807022 346.65161672 -58.11473909 357.48947428 -54.671875 368.2421875 C-54 371 -54 371 -55 374 C-81.01977469 356.50180494 -103.34196787 336.28942481 -110.38037109 304.54418945 C-118.16711001 260.00514735 -94.56371299 217.18155609 -72.65234375 180.22265625 C-66.77031012 170.27077084 -61.24099698 160.11888313 -55.65869141 149.99707031 C-54.22460392 147.40583423 -52.77940641 144.82160966 -51.32421875 142.2421875 C-25.55770937 96.53008808 -8.38404301 51.87720691 0 0 Z " fill="#ED720F" transform="translate(424,179)"/>
<path d="M0 0 C2.73494699 2.44279102 4.29932577 5.07559972 6.046875 8.28515625 C6.63654053 9.35950928 7.22620605 10.4338623 7.83374023 11.54077148 C8.14528046 12.113508 8.45682068 12.68624451 8.77780151 13.27633667 C10.45059162 16.34965594 12.14169322 19.41286974 13.83203125 22.4765625 C14.17931778 23.10668747 14.52660431 23.73681244 14.88441467 24.3860321 C18.32464015 30.61471759 21.86875703 36.78163187 25.4375 42.9375 C26.05125488 43.99767334 26.66500977 45.05784668 27.29736328 46.15014648 C28.55429074 48.32109904 29.81145393 50.49191512 31.06884766 52.66259766 C41.65652356 70.96013616 52.06983105 89.33467938 62 108 C62.55848633 109.04317383 63.11697266 110.08634766 63.69238281 111.16113281 C81.89519837 145.22300945 97.15315988 179.46394042 85.96875 218.609375 C76.92097665 243.67415252 57.35941018 265.27372635 34 278 C33.34 278 32.68 278 32 278 C32.32484375 276.73285156 32.6496875 275.46570313 32.984375 274.16015625 C34.15129689 268.88323651 34.30526062 263.82541017 34.25 258.4375 C34.24323242 257.47730957 34.23646484 256.51711914 34.22949219 255.52783203 C33.95590009 236.43683015 30.92905642 218.84447219 18 204 C14.08402281 200.6303195 9.98629113 197.52657058 5.859375 194.42089844 C4.11499998 193.08788076 2.41610548 191.71235099 0.71875 190.3203125 C-7.60566201 183.87095369 -13.70002329 182.6438459 -24 183 C-22.62869857 178.90060684 -20.79383021 176.41698327 -17.8125 173.3125 C-10.04198663 164.92687329 -4.51350366 158.13081366 -4.66796875 146.43359375 C-6.25071463 130.06613934 -17.42333443 114.75054259 -26.83813477 101.84643555 C-29.86575846 97.69286533 -32.53077857 93.51028807 -35 89 C-34.5153125 88.51273437 -34.030625 88.02546875 -33.53125 87.5234375 C-12.05126681 64.80422451 -5.04404222 29.79431151 0 0 Z " fill="#E64218" transform="translate(474,273)"/>
<path d="M0 0 C1.3366571 0.5567617 1.3366571 0.5567617 2.70031738 1.12477112 C5.54161471 2.30934479 8.38021792 3.50022365 11.21875 4.69140625 C13.12872697 5.48936154 15.03888138 6.28689226 16.94921875 7.08398438 C19.64326534 8.20814046 22.3370377 9.33290512 25.02941895 10.46104431 C25.83375366 10.79801834 26.63808838 11.13499237 27.46679688 11.48217773 C28.16897339 11.77672348 28.8711499 12.07126923 29.59460449 12.3747406 C31.9612211 13.35426296 34.34062805 14.30265747 36.71875 15.25390625 C36.71875 33.73390625 36.71875 52.21390625 36.71875 71.25390625 C14.59502119 82.89797405 14.59502119 82.89797405 3.71875 88.31640625 C2.02492188 89.1662207 2.02492188 89.1662207 0.296875 90.03320312 C-0.78078125 90.57138672 -1.8584375 91.10957031 -2.96875 91.6640625 C-3.92136719 92.13980713 -4.87398438 92.61555176 -5.85546875 93.10571289 C-8.28125 94.25390625 -8.28125 94.25390625 -11.28125 95.25390625 C-13.85306522 94.28115885 -16.26267455 93.24151248 -18.73828125 92.0625 C-19.47769455 91.72017838 -20.21710785 91.37785675 -20.97892761 91.02516174 C-23.35492037 89.92305919 -25.72443429 88.80778099 -28.09375 87.69140625 C-30.4249521 86.60270207 -32.75744749 85.51684018 -35.09074402 84.43263245 C-36.54057227 83.75788645 -37.98905484 83.08023618 -39.43574524 82.39878845 C-46.32130839 79.17441712 -53.27710174 76.25568407 -60.28125 73.25390625 C-60.28125 54.44390625 -60.28125 35.63390625 -60.28125 16.25390625 C-53.990625 13.34578125 -47.7 10.43765625 -41.21875 7.44140625 C-39.24640381 6.5289917 -37.27405762 5.61657715 -35.24194336 4.67651367 C-33.6600287 3.94572456 -32.078081 3.21500696 -30.49609375 2.484375 C-29.68982544 2.11107056 -28.88355713 1.73776611 -28.05285645 1.35314941 C-26.50469688 0.63855964 -24.95432752 -0.07127067 -23.40133667 -0.77529907 C-22.03466068 -1.40110451 -20.67607416 -2.04504537 -19.32839966 -2.71078491 C-12.07044755 -6.16708657 -6.91590445 -2.91421192 0 0 Z " fill="#55514E" transform="translate(396.28125,575.74609375)"/>
<path d="M0 0 C0.86749374 0.37117447 1.73498749 0.74234894 2.62876892 1.12477112 C5.38932751 2.30747285 8.14588082 3.49919449 10.90234375 4.69140625 C13.66324352 5.87795041 16.42492136 7.06267026 19.18663025 8.24732971 C20.90129535 8.98368645 22.61532475 9.72152572 24.32862854 10.46104431 C25.10971481 10.79801834 25.89080109 11.13499237 26.69555664 11.48217773 C27.37695206 11.77672348 28.05834747 12.07126923 28.76039124 12.3747406 C31.10680805 13.36677531 33.47454054 14.30778497 35.83984375 15.25390625 C35.83984375 34.06390625 35.83984375 52.87390625 35.83984375 72.25390625 C28.66234375 75.86328125 21.48484375 79.47265625 14.08984375 83.19140625 C11.82915039 84.33085693 9.56845703 85.47030762 7.23925781 86.64428711 C5.44482102 87.54442624 3.65023479 88.44426754 1.85546875 89.34375 C0.92589355 89.81365356 -0.00368164 90.28355713 -0.96142578 90.7677002 C-1.8542627 91.2142395 -2.74709961 91.66077881 -3.66699219 92.12084961 C-4.43976501 92.50945663 -5.21253784 92.89806366 -6.00872803 93.29844666 C-11.09092729 95.55547573 -11.09092729 95.55547573 -14.061203 94.71772766 C-14.71800552 94.4078038 -15.37480804 94.09787994 -16.05151367 93.77856445 C-16.80297165 93.43102615 -17.55442963 93.08348785 -18.32865906 92.72541809 C-19.13285782 92.339077 -19.93705658 91.9527359 -20.765625 91.5546875 C-21.6042659 91.16323044 -22.4429068 90.77177338 -23.30696106 90.36845398 C-25.99248381 89.11203397 -28.67007366 87.83964717 -31.34765625 86.56640625 C-33.1316482 85.72742337 -34.91614842 84.88952038 -36.70117188 84.05273438 C-39.23495449 82.86472787 -41.76793594 81.67531541 -44.29692078 80.47712708 C-45.44774895 79.93217842 -45.44774895 79.93217842 -46.62182617 79.3762207 C-47.6129969 78.90536797 -47.6129969 78.90536797 -48.62419128 78.42500305 C-52.44994095 76.65828969 -56.30937166 74.96536607 -60.16015625 73.25390625 C-60.16015625 54.44390625 -60.16015625 35.63390625 -60.16015625 16.25390625 C-54.77703125 13.71703125 -49.39390625 11.18015625 -43.84765625 8.56640625 C-40.2649768 6.87700773 -40.2649768 6.87700773 -36.68232727 5.18754578 C-34.53422266 4.17746038 -32.3830342 3.17409729 -30.23193359 2.17041016 C-27.7395048 1.00557042 -25.27378058 -0.18818315 -22.81103516 -1.41650391 C-21.86019043 -1.88233887 -20.9093457 -2.34817383 -19.9296875 -2.828125 C-19.13796143 -3.22878174 -18.34623535 -3.62943848 -17.53051758 -4.04223633 C-11.44809758 -5.8483561 -5.50609169 -2.3958754 0 0 Z " fill="#55514E" transform="translate(503.16015625,575.74609375)"/>
<path d="M0 0 C0 18.15 0 36.3 0 55 C-7.21875 58.63 -14.4375 62.26 -21.875 66 C-24.15390137 67.14855469 -26.43280273 68.29710937 -28.78076172 69.48046875 C-30.5802446 70.38312964 -32.37987628 71.28549397 -34.1796875 72.1875 C-35.58939819 72.9000293 -35.58939819 72.9000293 -37.02758789 73.62695312 C-37.9206665 74.07361328 -38.81374512 74.52027344 -39.73388672 74.98046875 C-40.51110077 75.37129639 -41.28831482 75.76212402 -42.08908081 76.16479492 C-44 77 -44 77 -46 77 C-46 58.52 -46 40.04 -46 21 C-40.410625 18.2775 -34.82125 15.555 -29.0625 12.75 C-27.31718994 11.89889648 -25.57187988 11.04779297 -23.77368164 10.17089844 C-22.36089872 9.48360291 -20.94806046 8.79642115 -19.53515625 8.109375 C-18.82548706 7.76277832 -18.11581787 7.41618164 -17.38464355 7.05908203 C-13.6412287 5.24061513 -9.88034606 3.46527837 -6.09155273 1.74316406 C-5.35645981 1.40899475 -4.62136688 1.07482544 -3.86399841 0.73052979 C-2 0 -2 0 0 0 Z " fill="#404143" transform="translate(539,593)"/>
<path d="M0 0 C0 18.15 0 36.3 0 55 C-7.21875 58.63 -14.4375 62.26 -21.875 66 C-24.15390137 67.14855469 -26.43280273 68.29710937 -28.78076172 69.48046875 C-30.5802446 70.38312964 -32.37987628 71.28549397 -34.1796875 72.1875 C-35.58939819 72.9000293 -35.58939819 72.9000293 -37.02758789 73.62695312 C-37.9206665 74.07361328 -38.81374512 74.52027344 -39.73388672 74.98046875 C-40.51110077 75.37129639 -41.28831482 75.76212402 -42.08908081 76.16479492 C-44 77 -44 77 -46 77 C-46 58.52 -46 40.04 -46 21 C-37.00322464 16.65984706 -28.00466366 12.32371849 -19 8 C-18.03803711 7.53770996 -17.07607422 7.07541992 -16.08496094 6.59912109 C-13.70461008 5.45735958 -11.32176492 4.32105986 -8.9375 3.1875 C-8.24922119 2.85685547 -7.56094238 2.52621094 -6.85180664 2.18554688 C-2.23143142 0 -2.23143142 0 0 0 Z " fill="#404143" transform="translate(432,593)"/>
<path d="M0 0 C0.86749374 0.37117447 1.73498749 0.74234894 2.62876892 1.12477112 C5.38932751 2.30747285 8.14588082 3.49919449 10.90234375 4.69140625 C13.66324352 5.87795041 16.42492136 7.06267026 19.18663025 8.24732971 C20.90129535 8.98368645 22.61532475 9.72152572 24.32862854 10.46104431 C28.14735589 12.10850886 31.9663247 13.73801148 35.83984375 15.25390625 C35.83984375 15.91390625 35.83984375 16.57390625 35.83984375 17.25390625 C26.84450372 21.5969642 17.84449578 25.93019334 8.83984375 30.25390625 C7.87788086 30.71619629 6.91591797 31.17848633 5.92480469 31.65478516 C3.54445383 32.79654667 1.16160867 33.93284639 -1.22265625 35.06640625 C-1.91093506 35.39705078 -2.59921387 35.72769531 -3.30834961 36.06835938 C-7.92872483 38.25390625 -7.92872483 38.25390625 -10.16015625 38.25390625 C-9.83015625 57.06390625 -9.50015625 75.87390625 -9.16015625 95.25390625 C-10.15015625 94.92390625 -11.14015625 94.59390625 -12.16015625 94.25390625 C-11.83015625 75.77390625 -11.50015625 57.29390625 -11.16015625 38.25390625 C-14.13015625 37.26390625 -17.10015625 36.27390625 -20.16015625 35.25390625 C-22.53630271 34.29831525 -24.90040121 33.31209174 -27.25 32.29296875 C-27.87943008 32.02052338 -28.50886017 31.748078 -29.15736389 31.46737671 C-30.4747639 30.89609751 -31.79136581 30.32297444 -33.10717773 29.74804688 C-35.0882064 28.88303252 -37.07218118 28.02507851 -39.05664062 27.16796875 C-46.1985685 24.06982178 -53.24817428 20.8427221 -60.16015625 17.25390625 C-57.55509908 15.20747649 -55.02679592 13.57630659 -52.03759766 12.15332031 C-51.2364151 11.76992493 -50.43523254 11.38652954 -49.60977173 10.99151611 C-48.3237355 10.38663361 -48.3237355 10.38663361 -47.01171875 9.76953125 C-46.12157074 9.34967957 -45.23142273 8.92982788 -44.31430054 8.49725342 C-42.43443366 7.61379441 -40.5532667 6.73309722 -38.67089844 5.85498047 C-35.7957018 4.50884357 -32.93125789 3.14142383 -30.06640625 1.7734375 C-28.23630328 0.91662995 -26.4055934 0.06111728 -24.57421875 -0.79296875 C-23.72090973 -1.20432068 -22.86760071 -1.61567261 -21.98843384 -2.03948975 C-13.45139652 -5.95957855 -8.23854411 -3.58485225 0 0 Z " fill="#6A6B6D" transform="translate(503.16015625,575.74609375)"/>
<path d="M0 0 C1.3366571 0.5567617 1.3366571 0.5567617 2.70031738 1.12477112 C5.54161471 2.30934479 8.38021792 3.50022365 11.21875 4.69140625 C13.12872697 5.48936154 15.03888138 6.28689226 16.94921875 7.08398438 C19.64326534 8.20814046 22.3370377 9.33290512 25.02941895 10.46104431 C25.83375366 10.79801834 26.63808838 11.13499237 27.46679688 11.48217773 C28.16897339 11.77672348 28.8711499 12.07126923 29.59460449 12.3747406 C31.9612211 13.35426296 34.34062805 14.30265747 36.71875 15.25390625 C36.71875 33.73390625 36.71875 52.21390625 36.71875 71.25390625 C36.38875 71.25390625 36.05875 71.25390625 35.71875 71.25390625 C35.71875 53.43390625 35.71875 35.61390625 35.71875 17.25390625 C24.73884584 22.61957858 24.73884584 22.61957858 13.76269531 27.99291992 C10.83126026 29.42828608 7.88695753 30.83285597 4.93481445 32.22509766 C2.350735 33.44553054 -0.10476966 34.71748053 -2.60083008 36.12255859 C-6.97803028 38.42205457 -9.71803366 39.59212282 -14.64501953 38.52612305 C-18.38601049 37.07192138 -21.91795835 35.35980817 -25.46875 33.50390625 C-26.74566308 32.87583526 -28.02482596 32.25231844 -29.30615234 31.63330078 C-31.82435907 30.41407363 -34.3328459 29.17766207 -36.83642578 27.92871094 C-41.93285356 25.45092961 -47.1566956 23.37194346 -52.44604492 21.34863281 C-55.72437645 20.05449743 -57.89459371 18.8251756 -60.28125 16.25390625 C-54.85579621 13.74412317 -49.42975343 11.23561944 -44.00317383 8.72827148 C-42.15926346 7.87607933 -40.31551123 7.02354492 -38.47192383 6.1706543 C-35.81373471 4.94098161 -33.15496919 3.71256283 -30.49609375 2.484375 C-29.67914536 2.10613083 -28.86219696 1.72788666 -28.02049255 1.33818054 C-26.48311718 0.62858834 -24.94350209 -0.07617824 -23.40133667 -0.77529907 C-22.03466068 -1.40110451 -20.67607416 -2.04504537 -19.32839966 -2.71078491 C-12.07044755 -6.16708657 -6.91590445 -2.91421192 0 0 Z " fill="#6A6B6D" transform="translate(396.28125,575.74609375)"/>
<path d="M0 0 C5.13503344 0.64187918 9.9943454 1.68272247 15 3 C15 3.66 15 4.32 15 5 C16.175625 5.2165625 16.175625 5.2165625 17.375 5.4375 C20 6 20 6 22 7 C22 7.66 22 8.32 22 9 C22.66 9.185625 23.32 9.37125 24 9.5625 C29.48839392 12.19235542 33.75890213 16.69304657 38 21 C38.495 19.515 38.495 19.515 39 18 C37.79870633 16.09198426 37.79870633 16.09198426 36.0625 14.3125 C35.49660156 13.68988281 34.93070312 13.06726563 34.34765625 12.42578125 C33.90292969 11.95527344 33.45820313 11.48476563 33 11 C39.63569744 14.29019998 42.0020345 17.30955962 45 24 C45.36480469 24.78632813 45.72960937 25.57265625 46.10546875 26.3828125 C54.52226811 44.7964602 49.23729574 65.52471905 42.6875 83.8125 C42.13796505 85.21348832 41.58181086 86.61210481 41 88 C41.99 88.33 42.98 88.66 44 89 C39.25 92 39.25 92 37 92 C37.32484375 90.73285156 37.6496875 89.46570313 37.984375 88.16015625 C39.15129689 82.88323651 39.30526062 77.82541017 39.25 72.4375 C39.24323242 71.47730957 39.23646484 70.51711914 39.22949219 69.52783203 C38.95611108 50.45155272 35.94145838 32.82261608 23 18 C20.85217631 16.07839303 18.59885836 14.31560052 16.3125 12.5625 C15.69616699 12.08312988 15.07983398 11.60375977 14.44482422 11.10986328 C10.24953858 7.87606571 5.96225855 4.84534811 1.4765625 2.0234375 C0.98929687 1.68570312 0.50203125 1.34796875 0 1 C0 0.67 0 0.34 0 0 Z " fill="#F4A530" transform="translate(469,459)"/>
<path d="M0 0 C4.38129948 3.85023288 7.16875507 8.25357182 10.21875 13.203125 C12.2791344 16.43828998 14.54614258 19.44306679 16.93359375 22.44140625 C18 24 18 24 18 26 C18.66 26 19.32 26 20 26 C20 26.99 20 27.98 20 29 C20.66 29 21.32 29 22 29 C22.391875 29.928125 22.78375 30.85625 23.1875 31.8125 C24.15400062 34.08446354 25.15477821 36.32859064 26.20703125 38.5625 C31.80574239 50.47033277 35.7687675 62.13270512 32.05078125 75.3828125 C29.75292538 81.16732034 26.86819365 86.13712798 23 91 C22 87.125 22 87.125 22 86 C21.55269531 86.34933594 21.10539062 86.69867188 20.64453125 87.05859375 C17.14976044 89.68898628 14.48721443 91.59207142 10 92 C10.825 91.071875 11.65 90.14375 12.5 89.1875 C19.81070121 80.65544059 25.48418933 73.9561098 25.33203125 62.43359375 C23.74928537 46.06613934 12.57666557 30.75054259 3.16186523 17.84643555 C0.13424154 13.69286533 -2.53077857 9.51028807 -5 5 C-3.35 3.35 -1.7 1.7 0 0 Z " fill="#FAA515" transform="translate(444,357)"/>
<path d="M0 0 C3.16850175 2.67433175 4.7701662 6.09595174 6.5625 9.75 C6.86607422 10.34554688 7.16964844 10.94109375 7.48242188 11.5546875 C11.84852587 20.34396874 13.60901485 29.13037371 11.34765625 38.78515625 C8.96249038 45.57213037 5.38512352 49.80743824 -1.0546875 53.02734375 C-4.76410816 54.54610655 -7.94476043 55.38017871 -12 55 C-10.700625 53.5459375 -10.700625 53.5459375 -9.375 52.0625 C0.41608111 40.62410429 4.10624059 30.15549605 3 15 C2.35135247 11.77938961 1.56189295 8.65326569 0.65625 5.49609375 C0 3 0 3 0 0 Z " fill="#E36947" transform="translate(455,390)"/>
<path d="M0 0 C2.79255992 2.59906707 3.48698616 4.13240362 4.0625 7.9375 C4.26552734 9.21947266 4.26552734 9.21947266 4.47265625 10.52734375 C4.64667969 11.67332031 4.82070313 12.81929687 5 14 C5.16395264 14.85883789 5.32790527 15.71767578 5.49682617 16.60253906 C6.88333883 24.09327679 7.27500013 31.26709388 7.1875 38.875 C7.18685547 39.96296875 7.18621094 41.0509375 7.18554688 42.171875 C7.15781024 47.21377908 7.07805198 52.04958533 6 57 C5.67 57 5.34 57 5 57 C3.97256993 47.4937781 3.6899524 37.99158082 3.44775391 28.43945312 C3.39605069 26.44911646 3.33873522 24.45892806 3.28125 22.46875 C3.25095703 21.29763672 3.22066406 20.12652344 3.18945312 18.91992188 C3.12009242 15.93671057 3.12009242 15.93671057 2 13 C0.50319505 17.22175755 -0.54401649 21.35067552 -1.375 25.75 C-2.52320236 31.65920549 -3.72431264 37.55441641 -5 43.4375 C-5.15388184 44.17000977 -5.30776367 44.90251953 -5.46630859 45.65722656 C-6.41796567 50.00230541 -7.68628356 54.06201562 -9.30859375 58.20288086 C-10.17506796 60.4550407 -10.84859189 62.7399199 -11.5 65.0625 C-12.71597295 69.21972689 -14.24932324 73.0419482 -16 77 C-17.01318683 79.92036204 -17.95445537 82.8540132 -18.875 85.8046875 C-20.01529283 89.0434359 -21.38530508 92.00155582 -22.9375 95.0625 C-23.69353516 96.56490234 -23.69353516 96.56490234 -24.46484375 98.09765625 C-27.34368162 103.54034464 -27.34368162 103.54034464 -29 106 C-29.66 106 -30.32 106 -31 106 C-29.7431593 102.08879214 -28.33808689 98.32796857 -26.6796875 94.5703125 C-13.25655065 63.78115795 -5.35145343 33.11271859 0 0 Z " fill="#EBAD2F" transform="translate(424,179)"/>
<path d="M0 0 C0.33 0 0.66 0 1 0 C1.52958672 4.2366938 0.18447333 6.80836833 -1.78515625 10.48828125 C-4.84211647 16.80862022 -6.98401605 23.65733526 -9.0234375 30.3671875 C-10 33 -10 33 -12 34 C-13.73136632 38.27749325 -14.40921248 42.44249628 -15 47 C-15.5077239 49.39355552 -16.15556626 51.36298795 -17.125 53.625 C-18.16908765 57.65219524 -17.7782329 60.75122403 -17.19140625 64.828125 C-17 67 -17 67 -18 69 C-18.24334014 72.9114372 -18.185206 76.83184539 -18.1875 80.75 C-18.19974609 81.83539063 -18.21199219 82.92078125 -18.22460938 84.0390625 C-18.23450749 89.4368359 -18.15785865 93.96499648 -16 99 C-15.67 99.97582031 -15.34 100.95164062 -15 101.95703125 C-14.67 102.89933594 -14.34 103.84164062 -14 104.8125 C-13.67 105.76769531 -13.34 106.72289062 -13 107.70703125 C-12.22392828 110.15515125 -12.22392828 110.15515125 -10 111 C-9.81244141 112.08087891 -9.81244141 112.08087891 -9.62109375 113.18359375 C-8.82641387 116.78714214 -7.17111018 119.0463867 -5.0625 122.0625 C-0.62939313 128.44263384 -0.62939313 128.44263384 1 132 C1.66 132 2.32 132 3 132 C3 132.66 3 133.32 3 134 C3.66 134 4.32 134 5 134 C6.4375 135.49609375 6.4375 135.49609375 8 137.4375 C10.14525044 140.15188238 10.14525044 140.15188238 13 142 C12.67 142.99 12.34 143.98 12 145 C-6.38620263 127.92918547 -20.25553584 107.91990183 -21.50390625 82.01171875 C-22.05662829 52.25953868 -13.61324651 26.31629452 0 0 Z " fill="#D7442D" transform="translate(334,391)"/>
<path d="M0 0 C6.79654761 3.39827381 8.95860444 6.21263848 12 13 C12.36480469 13.78632813 12.72960937 14.57265625 13.10546875 15.3828125 C16.29896823 22.36931316 17.20378303 27.83953784 17.25 35.5 C17.270625 36.35464844 17.29125 37.20929688 17.3125 38.08984375 C17.34215414 42.8419191 17.23068863 45.32876292 14 49 C13.31868781 51.69589388 13.31868781 51.69589388 13 54.625 C12.17843069 60.29243576 10.80144468 65.5716467 9 71 C8.67 71 8.34 71 8 71 C8.14433868 69.64567321 8.29056661 68.29154775 8.4375 66.9375 C8.51871094 66.18339844 8.59992188 65.42929687 8.68359375 64.65234375 C8.90908914 62.76207994 9.18703919 60.87776489 9.5 59 C10.31311715 53.39321184 10.36641052 47.71694917 10.5625 42.0625 C10.60568359 40.90169922 10.64886719 39.74089844 10.69335938 38.54492188 C10.79884842 35.69671768 10.90096555 32.84843471 11 30 C10.34 29.67 9.68 29.34 9 29 C8.79630654 27.13280996 8.59765469 25.2649187 8.42578125 23.39453125 C7.78035807 19.764766 6.22219376 16.61049393 4.64453125 13.296875 C4 11 4 11 6 7 C4.02 4.69 2.04 2.38 0 0 Z " fill="#F8A30C" transform="translate(502,470)"/>
<path d="M0 0 C4.38129948 3.85023288 7.16875507 8.25357182 10.21875 13.203125 C12.2791344 16.43828998 14.54614258 19.44306679 16.93359375 22.44140625 C18 24 18 24 18 26 C18.66 26 19.32 26 20 26 C20 26.99 20 27.98 20 29 C20.66 29 21.32 29 22 29 C24.875 35.625 24.875 35.625 26 39 C22.04433627 37.68144542 21.74413841 36.14435027 19.875 32.5 C18.2555644 29.02894148 18.2555644 29.02894148 16 26 C15.34 27.32 14.68 28.64 14 30 C8.38327679 25.87708615 4.93699115 20.97016983 1.125 15.1875 C0.23554688 13.86202148 0.23554688 13.86202148 -0.671875 12.50976562 C-2.12277267 10.3451199 -3.56512283 8.17528399 -5 6 C-3.35 4.02 -1.7 2.04 0 0 Z " fill="#EA7336" transform="translate(444,357)"/>
<path d="M0 0 C5.07129567 6.03043202 10.40411582 13.58301354 10.375 21.75 C10.25125 22.8225 10.1275 23.895 10 25 C10.33 25 10.66 25 11 25 C12.03194763 48.78877436 12.03194763 48.78877436 6 59 C4.68 58.67 3.36 58.34 2 58 C2.42152344 57.38511719 2.84304688 56.77023437 3.27734375 56.13671875 C3.82519531 55.32847656 4.37304688 54.52023437 4.9375 53.6875 C5.75541016 52.48673828 5.75541016 52.48673828 6.58984375 51.26171875 C9.94429511 45.88158762 9.59273475 40.12957464 9 34 C6.37201604 23.03938396 0.67175449 13.60917082 -5 4 C-5.33 3.34 -5.66 2.68 -6 2 C-4.02 2.99 -4.02 2.99 -2 4 C-1.34 2.68 -0.68 1.36 0 0 Z " fill="#F39C31" transform="translate(460,382)"/>
<path d="M0 0 C-0.99 1.65 -1.98 3.3 -3 5 C-2.02417969 5.03738281 -1.04835938 5.07476562 -0.04296875 5.11328125 C1.22933594 5.17902344 2.50164062 5.24476563 3.8125 5.3125 C5.07707031 5.37050781 6.34164062 5.42851562 7.64453125 5.48828125 C11 6 11 6 14 9 C-6.46 9 -26.92 9 -48 9 C-48 8.67 -48 8.34 -48 8 C-40.74 8 -33.48 8 -26 8 C-26 7.34 -26 6.68 -26 6 C-19.73 5.67 -13.46 5.34 -7 5 C-10.46712111 3.84429296 -13.5414956 3.67164707 -17.1875 3.4375 C-18.45980469 3.35371094 -19.73210937 3.26992188 -21.04296875 3.18359375 C-22.01878906 3.12300781 -22.99460937 3.06242187 -24 3 C-24 2.67 -24 2.34 -24 2 C-22.62328125 1.92652344 -22.62328125 1.92652344 -21.21875 1.8515625 C-13.15258617 1.41795884 -13.15258617 1.41795884 -5.25 -0.125 C-2 -1 -2 -1 0 0 Z " fill="#DC6828" transform="translate(454,450)"/>
<path d="M0 0 C3.58160435 3.19786103 5.79993727 6.78944306 8 11 C8.34740234 11.66427002 8.69480469 12.32854004 9.05273438 13.01293945 C14.17679749 23.04355738 18.67495021 33.88300993 15.33984375 45.25 C12.93560187 50.57888245 8.98511195 54.79100536 5 59 C4.67 58.34 4.34 57.68 4 57 C3.34 56.67 2.68 56.34 2 56 C3.36125 55.071875 3.36125 55.071875 4.75 54.125 C9.70057272 49.93695626 11.54859693 44.41315998 12.3828125 38.10546875 C12.84242649 26.41595304 8.34856728 15.66796103 2 6 C1.34 5.67 0.68 5.34 0 5 C0 3.35 0 1.7 0 0 Z " fill="#FEF6E6" transform="translate(454,385)"/>
<path d="M0 0 C2.90663421 2.41559519 3.5035355 4.24182212 4.0625 7.9375 C4.19785156 8.79214844 4.33320313 9.64679688 4.47265625 10.52734375 C4.64667969 11.67332031 4.82070313 12.81929687 5 14 C5.24592896 15.28825684 5.24592896 15.28825684 5.49682617 16.60253906 C6.88333883 24.09327679 7.27500013 31.26709388 7.1875 38.875 C7.18685547 39.96296875 7.18621094 41.0509375 7.18554688 42.171875 C7.15781024 47.21377908 7.07805198 52.04958533 6 57 C5.67 57 5.34 57 5 57 C3.97256993 47.4937781 3.6899524 37.99158082 3.44775391 28.43945312 C3.39605069 26.44911646 3.33873522 24.45892806 3.28125 22.46875 C3.25095703 21.29763672 3.22066406 20.12652344 3.18945312 18.91992188 C3.12009242 15.93671057 3.12009242 15.93671057 2 13 C1.34 14.32 0.68 15.64 0 17 C-1.23104155 13.31599416 -0.90767252 10.08525024 -0.5625 6.25 C-0.46066406 5.07953125 -0.35882813 3.9090625 -0.25390625 2.703125 C-0.17011719 1.81109375 -0.08632813 0.9190625 0 0 Z " fill="#FDC60D" transform="translate(424,179)"/>
<path d="M0 0 C0.33 0 0.66 0 1 0 C1.52958672 4.2366938 0.18447333 6.80836833 -1.78515625 10.48828125 C-4.84211647 16.80862022 -6.98401605 23.65733526 -9.0234375 30.3671875 C-10 33 -10 33 -12 34 C-13.73136632 38.27749325 -14.40921248 42.44249628 -15 47 C-15.72616095 50.42333019 -16.76328708 53.72634815 -18 57 C-18.99 57.495 -18.99 57.495 -20 58 C-19.42375695 52.44823902 -18.4331653 47.33539911 -16.8125 42 C-16.59182861 41.26652344 -16.37115723 40.53304687 -16.14379883 39.77734375 C-11.90714237 25.96415553 -6.32752254 12.97623911 0 0 Z " fill="#D2442A" transform="translate(334,391)"/>
<path d="M0 0 C0.66 0 1.32 0 2 0 C2.33 2.31 2.66 4.62 3 7 C3.66 5.68 4.32 4.36 5 3 C6.41693757 5.83387515 6.1699013 8.28029373 6.1875 11.4375 C6.20167969 12.59121094 6.21585938 13.74492187 6.23046875 14.93359375 C6 18 6 18 4 21 C3.62154061 22.84183571 3.31753105 24.69955893 3.0625 26.5625 C2.19844303 32.23762618 0.80599089 37.55794746 -1 43 C-1.33 43 -1.66 43 -2 43 C-1.85566132 41.64567321 -1.70943339 40.29154775 -1.5625 38.9375 C-1.44068359 37.80634766 -1.44068359 37.80634766 -1.31640625 36.65234375 C-1.09091086 34.76207994 -0.81296081 32.87776489 -0.5 31 C0.31311715 25.39321184 0.36641052 19.71694917 0.5625 14.0625 C0.60568359 12.90169922 0.64886719 11.74089844 0.69335938 10.54492188 C0.79884842 7.69671768 0.90096555 4.84843471 1 2 C0.34 1.67 -0.32 1.34 -1 1 C-0.67 0.67 -0.34 0.34 0 0 Z " fill="#F8B60A" transform="translate(512,498)"/>
<path d="M0 0 C4.52278935 4.52278935 6.17047207 15.13931764 6.5 21.375 C5.85457095 26.05436062 4.16150522 29.8313828 2 34 C0 32 0 32 -0.21118164 29.63330078 C-0.19434326 28.66376465 -0.17750488 27.69422852 -0.16015625 26.6953125 C-0.14919922 25.63699219 -0.13824219 24.57867187 -0.12695312 23.48828125 C-0.10568359 22.37839844 -0.08441406 21.26851563 -0.0625 20.125 C-0.0280027 17.94017126 0.00212251 15.75526801 0.02734375 13.5703125 C0.04531006 12.59852051 0.06327637 11.62672852 0.08178711 10.62548828 C0.00716386 8.22997064 -0.39554543 6.30062489 -1 4 C-0.5625 1.75 -0.5625 1.75 0 0 Z " fill="#FCC62B" transform="translate(470,402)"/>
<path d="M0 0 C0.66 0.33 1.32 0.66 2 1 C4.25024815 12.47626558 3.88531429 25.69018516 1 37 C-0.57421875 38.89453125 -0.57421875 38.89453125 -2 40 C-1.9278125 39.36578125 -1.855625 38.7315625 -1.78125 38.078125 C-1.02107381 30.43413112 -0.92510875 22.88005074 -1.03710938 15.20800781 C-1.09022952 10.03288022 -0.75532917 5.12207595 0 0 Z " fill="#D53531" transform="translate(561,446)"/>
<path d="M0 0 C1.00399874 3.13198202 0.96343682 5.10404855 0.109375 8.265625 C-0.10589844 9.07386719 -0.32117188 9.88210938 -0.54296875 10.71484375 C-0.77628906 11.55144531 -1.00960937 12.38804687 -1.25 13.25 C-1.46785156 14.07113281 -1.68570313 14.89226563 -1.91015625 15.73828125 C-3.32407187 20.95571258 -5.02861689 25.96717488 -7 31 C-6.01 31.33 -5.02 31.66 -4 32 C-8.75 35 -8.75 35 -11 35 C-10.55170486 33.01853549 -10.09107502 31.03985789 -9.625 29.0625 C-9.24214844 27.40927734 -9.24214844 27.40927734 -8.8515625 25.72265625 C-8.57054687 24.82417969 -8.28953125 23.92570313 -8 23 C-7.34 22.67 -6.68 22.34 -6 22 C-3.7215019 16.50543998 -2.6626682 10.82212659 -2.30859375 4.91015625 C-2 3 -2 3 0 0 Z " fill="#FC9515" transform="translate(517,516)"/>
<path d="M0 0 C0.33 0 0.66 0 1 0 C2.47167985 6.16050322 2.18599452 12.41414214 2.18530273 18.70727539 C2.18746252 20.89945697 2.20556492 23.09111221 2.22460938 25.28320312 C2.2597034 34.38103859 1.57200681 43.01595882 0 52 C-0.33 52 -0.66 52 -1 52 C-1.02719556 49.62492145 -1.04693247 47.25016036 -1.0625 44.875 C-1.07087891 44.20984375 -1.07925781 43.5446875 -1.08789062 42.859375 C-1.10234015 39.91167218 -1.02221077 37.12354742 -0.5 34.21875 C0.05588895 30.6402149 0.11261912 27.25382718 0.09765625 23.6328125 C0.09553383 22.61343094 0.09553383 22.61343094 0.09336853 21.57345581 C0.08781518 19.42392388 0.07527169 17.27449992 0.0625 15.125 C0.05747896 13.65885568 0.05291711 12.19270971 0.04882812 10.7265625 C0.03786111 7.15100717 0.02062919 3.57551414 0 0 Z " fill="#D96D3C" transform="translate(460,243)"/>
<path d="M0 0 C0.58984375 1.828125 0.58984375 1.828125 1 4 C-0.4375 6.75 -0.4375 6.75 -2 9 C1.465 8.505 1.465 8.505 5 8 C1.27363389 12.1314059 -3.50047322 13.84377958 -9 14.1875 C-9.66 14.125625 -10.32 14.06375 -11 14 C-10.62488281 13.57589844 -10.24976563 13.15179688 -9.86328125 12.71484375 C-6.30335421 8.63482662 -3.08682003 4.4486524 0 0 Z " fill="#E49553" transform="translate(454,431)"/>
<path d="M0 0 C2.475 0.99 2.475 0.99 5 2 C6.03194763 25.78877436 6.03194763 25.78877436 0 36 C-1.32 35.67 -2.64 35.34 -4 35 C-3.36771484 34.07767578 -3.36771484 34.07767578 -2.72265625 33.13671875 C-2.17480469 32.32847656 -1.62695312 31.52023437 -1.0625 30.6875 C-0.51722656 29.88699219 0.02804687 29.08648437 0.58984375 28.26171875 C4.35998229 22.21487605 3.73276794 14.52751077 2.328125 7.765625 C1.61078305 5.15341752 0.85047667 2.57167944 0 0 Z " fill="#EFBF54" transform="translate(466,405)"/>
<path d="M0 0 C0.66 0.66 1.32 1.32 2 2 C1.8414348 5.19773148 1.24743427 6.70530897 -0.8203125 9.16796875 C-5.43306149 13.20998778 -8.8978798 15.96134124 -15 17 C-14.06725891 15.87105124 -13.12859878 14.74699124 -12.1875 13.625 C-11.66542969 12.99851562 -11.14335937 12.37203125 -10.60546875 11.7265625 C-9 10 -9 10 -6 8 C-5.01 8.33 -4.02 8.66 -3 9 C-2.690625 7.88625 -2.38125 6.7725 -2.0625 5.625 C-1 2 -1 2 0 0 Z " fill="#F6A72E" transform="translate(469,432)"/>
<path d="M0 0 C5.13503344 0.64187918 9.9943454 1.68272247 15 3 C14.360625 3.12375 13.72125 3.2475 13.0625 3.375 C12.381875 3.58125 11.70125 3.7875 11 4 C10.67 4.66 10.34 5.32 10 6 C10.53625 6.2475 11.0725 6.495 11.625 6.75 C14.5823982 8.30652537 17.29724051 10.03435673 20 12 C20 12.66 20 13.32 20 14 C20.66 14 21.32 14 22 14 C22 14.66 22 15.32 22 16 C22.66 16 23.32 16 24 16 C23.67 16.66 23.34 17.32 23 18 C21.64068359 16.91332031 21.64068359 16.91332031 20.25390625 15.8046875 C14.1472589 10.94991125 8.08942501 6.18352919 1.4765625 2.0234375 C0.98929687 1.68570312 0.50203125 1.34796875 0 1 C0 0.67 0 0.34 0 0 Z " fill="#DF8353" transform="translate(469,459)"/>
<path d="M0 0 C3.62134657 3.22437569 5.83998591 6.87566825 8.0625 11.125 C8.41248047 11.7857251 8.76246094 12.4464502 9.12304688 13.12719727 C11.76549989 18.247261 13.72720202 23.36521726 15 29 C14.01 29 13.02 29 12 29 C11.67128906 27.89205078 11.67128906 27.89205078 11.3359375 26.76171875 C9.03036928 19.38577488 6.25954863 12.48668406 2 6 C1.34 5.67 0.68 5.34 0 5 C0 3.35 0 1.7 0 0 Z " fill="#FDEDD4" transform="translate(454,385)"/>
<path d="M0 0 C8.1011824 10.29945214 4.83418039 26.7560124 4 39 C3.67 39 3.34 39 3 39 C2.94465088 38.17387207 2.88930176 37.34774414 2.83227539 36.49658203 C2.62295652 33.38402566 2.41216944 30.2715729 2.20043945 27.15917969 C2.06546296 25.16869449 1.93212711 23.17809825 1.79882812 21.1875 C1.31629456 14.11034106 0.77255887 7.05180926 0 0 Z " fill="#EFBB48" transform="translate(506,500)"/>
<path d="M0 0 C2.87031736 2.2179725 3.58530365 4.50768425 4.46875 7.953125 C5.07439023 10.28662117 5.7684321 12.5778768 6.5 14.875 C6.7371875 15.63554687 6.974375 16.39609375 7.21875 17.1796875 C7.85169014 19.19482291 7.85169014 19.19482291 10 20 C10 21.32 10 22.64 10 24 C7 23 7 23 5.4296875 19.90234375 C4.89971234 18.58539542 4.38195493 17.26348012 3.875 15.9375 C3.61074219 15.29361328 3.34648437 14.64972656 3.07421875 13.98632812 C1.23979825 9.31647086 0.45658068 4.99454722 0 0 Z " fill="#D64934" transform="translate(314,482)"/>
<path d="M0 0 C3.20609302 3.00398974 4.95593298 6.12332117 7 10 C7 10.66 7 11.32 7 12 C6.34 12 5.68 12 5 12 C5 16.62 5 21.24 5 26 C4.67 26 4.34 26 4 26 C3.87882812 24.96101563 3.75765625 23.92203125 3.6328125 22.8515625 C2.71583919 15.1615328 1.70901188 7.5632866 0 0 Z " fill="#D77D5D" transform="translate(455,390)"/>
<path d="M0 0 C0.33 0 0.66 0 1 0 C1.55260842 4.42086733 0.11057447 7.02867963 -1.91015625 10.796875 C-3.68665031 14.3880673 -4.83147543 18.17573778 -6 22 C-6.99 21.67 -7.98 21.34 -9 21 C-6.76686274 13.55620912 -3.59727921 6.88023305 0 0 Z " fill="#D95E2B" transform="translate(334,391)"/>
<path d="M0 0 C2 2 2 2 2.16015625 3.98828125 C2.12792969 4.75527344 2.09570312 5.52226562 2.0625 6.3125 C1.98044086 9.70427771 2.1461161 12.69119989 3 16 C-0.74123976 11.7045025 -3.34151874 7.00099548 -6 2 C-4.02 2.99 -4.02 2.99 -2 4 C-1.34 2.68 -0.68 1.36 0 0 Z " fill="#E89444" transform="translate(460,382)"/>
<path d="M0 0 C-0.99 1.65 -1.98 3.3 -3 5 C-9.93 4.34 -16.86 3.68 -24 3 C-24 2.67 -24 2.34 -24 2 C-22.62328125 1.92652344 -22.62328125 1.92652344 -21.21875 1.8515625 C-13.15258617 1.41795884 -13.15258617 1.41795884 -5.25 -0.125 C-2 -1 -2 -1 0 0 Z " fill="#DE672B" transform="translate(454,450)"/>
<path d="M0 0 C0.33 0 0.66 0 1 0 C1.25581395 16.11627907 1.25581395 16.11627907 -2 21 C-2.59321869 22.88033997 -3.13095819 24.77870208 -3.625 26.6875 C-3.88539063 27.68136719 -4.14578125 28.67523438 -4.4140625 29.69921875 C-4.60742188 30.45847656 -4.80078125 31.21773438 -5 32 C-6.61361543 27.97110033 -5.30433208 24.48518835 -4.1875 20.5 C-2.37869771 13.71309984 -1.00158435 6.95837547 0 0 Z " fill="#D6663A" transform="translate(473,277)"/>
<path d="M0 0 C1.54650739 3.09301479 2.67691298 5.79411368 3.6875 9.0625 C3.95949219 9.91972656 4.23148437 10.77695312 4.51171875 11.66015625 C5 14 5 14 4 17 C2.02 15.68 0.04 14.36 -2 13 C-1.34 12.67 -0.68 12.34 0 12 C0 8.04 0 4.08 0 0 Z " fill="#E28B34" transform="translate(365,536)"/>
<path d="M0 0 C0.33 0 0.66 0 1 0 C1.61090954 6.4756411 0.16101087 10.58403945 -2.7109375 16.38671875 C-4.04750179 18.98743581 -4.04750179 18.98743581 -5.0390625 21.76953125 C-6 24 -6 24 -8 25 C-5.56541729 16.58782396 -2.79856214 8.29613284 0 0 Z " fill="#DA6D3E" transform="translate(466,309)"/>
<path d="M0 0 C0.33 0 0.66 0 1 0 C1.33 8.25 1.66 16.5 2 25 C1.01 24.67 0.02 24.34 -1 24 C-0.67 16.08 -0.34 8.16 0 0 Z " fill="#E48D23" transform="translate(361,502)"/>
<path d="M0 0 C0.33 0.66 0.66 1.32 1 2 C1.66 2.33 2.32 2.66 3 3 C0.03 6.63 -2.94 10.26 -6 14 C-6.33 13.34 -6.66 12.68 -7 12 C-7.66 11.67 -8.32 11.34 -9 11 C-8.071875 10.29875 -7.14375 9.5975 -6.1875 8.875 C-3.09904705 6.32684378 -1.55573813 3.71648553 0 0 Z " fill="#FEEEDA" transform="translate(465,430)"/>
<path d="M0 0 C0.33 0 0.66 0 1 0 C1.66268329 7.12384541 -0.74611936 13.30879185 -3 20 C-3.33 20 -3.66 20 -4 20 C-2.28571429 2.28571429 -2.28571429 2.28571429 0 0 Z " fill="#F4A908" transform="translate(514,521)"/>
<path d="M0 0 C2.82283845 2.41210799 2.98279197 2.82505166 3.375 6.8125 C3.24325111 10.77228617 2.0476063 13.58732283 0 17 C-1.23104155 13.31599416 -0.90767252 10.08525024 -0.5625 6.25 C-0.46066406 5.07953125 -0.35882813 3.9090625 -0.25390625 2.703125 C-0.17011719 1.81109375 -0.08632813 0.9190625 0 0 Z " fill="#F7BE20" transform="translate(424,179)"/>
<path d="M0 0 C0.66 0 1.32 0 2 0 C3.4783226 2.95664519 3.06032783 5.74229737 3 9 C0.625 8.375 0.625 8.375 -2 7 C-3.3125 3.875 -3.3125 3.875 -4 1 C-3.34 1 -2.68 1 -2 1 C-1.67 1.99 -1.34 2.98 -1 4 C-0.67 2.68 -0.34 1.36 0 0 Z " fill="#F2AE3C" transform="translate(467,397)"/>
<path d="M0 0 C0.66 0.66 1.32 1.32 2 2 C1.625 5.125 1.625 5.125 1 8 C1.99 8.33 2.98 8.66 4 9 C-0.75 12 -0.75 12 -3 12 C-2.01 8.04 -1.02 4.08 0 0 Z " fill="#E17F34" transform="translate(509,539)"/>
<path d="M0 0 C0.33 0 0.66 0 1 0 C0.54009491 5.33489907 -0.06722111 9.37523328 -3 14 C-3.99 14.33 -4.98 14.66 -6 15 C-4.40109514 9.80355921 -2.25861997 4.93387858 0 0 Z " fill="#EB9D31" transform="translate(399,270)"/>
<path d="M0 0 C-1.39750048 3.15835107 -3.05198234 5.32272825 -5.5 7.75 C-6.41265625 8.67039062 -6.41265625 8.67039062 -7.34375 9.609375 C-9 11 -9 11 -11 11 C-9.60249952 7.84164893 -7.94801766 5.67727175 -5.5 3.25 C-4.8915625 2.63640625 -4.283125 2.0228125 -3.65625 1.390625 C-2 0 -2 0 0 0 Z " fill="#FEF6E1" transform="translate(382,468)"/>
<path d="M0 0 C0.33 0.66 0.66 1.32 1 2 C0.67 2.66 0.34 3.32 0 4 C0.66 4.33 1.32 4.66 2 5 C0.71349294 5.69710731 -0.57940665 6.38242876 -1.875 7.0625 C-2.95394531 7.63677734 -2.95394531 7.63677734 -4.0546875 8.22265625 C-4.69664062 8.47917969 -5.33859375 8.73570312 -6 9 C-6.66 8.67 -7.32 8.34 -8 8 C-5.36 5.36 -2.72 2.72 0 0 Z " fill="#E68635" transform="translate(462,440)"/>
<path d="M0 0 C0.33 0.66 0.66 1.32 1 2 C0.06421005 4.35981813 -0.93347808 6.69631264 -2 9 C-2.66 9 -3.32 9 -4 9 C-4.144375 9.78375 -4.28875 10.5675 -4.4375 11.375 C-5 14 -5 14 -6 16 C-6.66 16 -7.32 16 -8 16 C-6.42986223 10.03347646 -3.24970218 5.17090975 0 0 Z " fill="#E0833E" transform="translate(371,325)"/>
<path d="M0 0 C0.66 0 1.32 0 2 0 C1.01 3.96 0.02 7.92 -1 12 C-1.66 12 -2.32 12 -3 12 C-2.88541307 10.56163249 -2.75790884 9.12429034 -2.625 7.6875 C-2.55539062 6.88699219 -2.48578125 6.08648437 -2.4140625 5.26171875 C-2 3 -2 3 0 0 Z " fill="#DC471F" transform="translate(325,412)"/>
<path d="M0 0 C0.33 0 0.66 0 1 0 C0.1688087 11.26482946 0.1688087 11.26482946 -2 15 C-2.99 15.33 -3.98 15.66 -5 16 C-3.41078475 10.63904723 -1.81027062 5.29156027 0 0 Z " fill="#EFBA40" transform="translate(411,239)"/>
<path d="M0 0 C1.43410153 3.78819273 0.51009497 6.06521279 -0.9375 9.75 C-1.31777344 10.73484375 -1.69804688 11.7196875 -2.08984375 12.734375 C-2.39019531 13.48203125 -2.69054687 14.2296875 -3 15 C-4.6440388 9.09640612 -2.84258692 5.31440163 0 0 Z " fill="#D23E35" transform="translate(560,484)"/>
<path d="M0 0 C1.1135821 3.34074631 0.94368586 3.83573301 -0.3125 6.9375 C-0.59351563 7.63746094 -0.87453125 8.33742187 -1.1640625 9.05859375 C-2.0353337 11.08206005 -2.9504194 13.06231274 -4 15 C-4.20705455 9.92716361 -3.72487541 5.79132057 -2 1 C-1.34 0.67 -0.68 0.34 0 0 Z " fill="#EFB725" transform="translate(416,228)"/>
<path d="M0 0 C0 3 0 3 -0.625 5.5625 C-0.810625 6.7690625 -0.810625 6.7690625 -1 8 C-0.34 8.66 0.32 9.32 1 10 C0.67 10.99 0.34 11.98 0 13 C-1.65 10.69 -3.3 8.38 -5 6 C-3.35 4.02 -1.7 2.04 0 0 Z " fill="#D86B58" transform="translate(444,357)"/>
<path d="M0 0 C2.96527758 2.4453385 3.55582214 4.44602347 4.1875 8.1875 C4.34605469 9.08855469 4.50460937 9.98960937 4.66796875 10.91796875 C4.83232422 11.94857422 4.83232422 11.94857422 5 13 C4.67 12.34 4.34 11.68 4 11 C3.34 11 2.68 11 2 11 C0.80712589 7.12315913 0 4.08378077 0 0 Z " fill="#D63E2D" transform="translate(314,482)"/>
<path d="M0 0 C0.33 0.66 0.66 1.32 1 2 C0.22265625 4.1640625 0.22265625 4.1640625 -0.9375 6.625 C-1.31777344 7.44226563 -1.69804687 8.25953125 -2.08984375 9.1015625 C-2.54037109 10.04128906 -2.54037109 10.04128906 -3 11 C-4.32 10.67 -5.64 10.34 -7 10 C-6.02223933 8.51990357 -5.0427506 7.04094856 -4.0625 5.5625 C-3.51722656 4.73878906 -2.97195313 3.91507812 -2.41015625 3.06640625 C-1 1 -1 1 0 0 Z " fill="#EBAB4F" transform="translate(469,430)"/>
<path d="M0 0 C0.66 0 1.32 0 2 0 C3.17881287 3.68379022 3.21358801 7.15541573 3 11 C2.34 11.66 1.68 12.32 1 13 C0.67 8.71 0.34 4.42 0 0 Z " fill="#E9603D" transform="translate(460,402)"/>
<path d="M0 0 C0.625 1.8125 0.625 1.8125 1 4 C0.01 5.485 0.01 5.485 -1 7 C-1.66 7 -2.32 7 -3 7 C-3.33 8.65 -3.66 10.3 -4 12 C-4.66 12 -5.32 12 -6 12 C-4.68139111 7.38486888 -2.78644563 3.90102388 0 0 Z " fill="#DD7331" transform="translate(362,341)"/>
<path d="M0 0 C5.13503344 0.64187918 9.9943454 1.68272247 15 3 C10.81806247 4.23493457 7.21592836 4.04726883 3 3 C1 1.4375 1 1.4375 0 0 Z " fill="#E76339" transform="translate(469,459)"/>
<path d="M0 0 C0.66 0 1.32 0 2 0 C2.22036864 3.85645121 1.60355101 6.49223216 0 10 C-0.99 9.67 -1.98 9.34 -3 9 C-2.01 6.03 -1.02 3.06 0 0 Z " fill="#DD5527" transform="translate(328,403)"/>
<path d="M0 0 C0 3 0 3 -1.3125 4.38671875 C-2.875 5.59114583 -4.4375 6.79557292 -6 8 C-6.66 7.01 -7.32 6.02 -8 5 C-4.04 2.525 -4.04 2.525 0 0 Z " fill="#E96715" transform="translate(468,446)"/>
<path d="M0 0 C0.99 0.66 1.98 1.32 3 2 C1.35 4.31 -0.3 6.62 -2 9 C-3 5 -3 5 -2.125 2.8125 C-1 1 -1 1 0 0 Z " fill="#F38A11" transform="translate(469,439)"/>
<path d="M0 0 C0.66 0 1.32 0 2 0 C1.5206753 4.31392226 0.2542015 6.16569547 -3 9 C-2.5020163 5.26512223 -2.12508244 3.18762365 0 0 Z " fill="#DD6124" transform="translate(343,374)"/>
<path d="M0 0 C2.51699845 2.51699845 3.10964078 4.57554146 4 8 C3.625 10.375 3.625 10.375 3 12 C0.97649676 8.96474514 0.67875982 7.80573798 0.375 4.3125 C0.30023438 3.50425781 0.22546875 2.69601562 0.1484375 1.86328125 C0.09945313 1.24839844 0.05046875 0.63351562 0 0 Z " fill="#D87260" transform="translate(462,402)"/>
<path d="M0 0 C0.99 0.33 1.98 0.66 3 1 C3.94921875 3.06640625 3.94921875 3.06640625 4.6875 5.5625 C4.93886719 6.38878906 5.19023437 7.21507812 5.44921875 8.06640625 C5.63097656 8.70449219 5.81273437 9.34257812 6 10 C2.51668565 6.98112756 1.20842856 4.43090471 0 0 Z " fill="#F79714" transform="translate(468,396)"/>
<path d="M0 0 C1.70884005 1.62339805 3.37446717 3.29319053 5 5 C5 5.66 5 6.32 5 7 C3.0625 6.3125 3.0625 6.3125 1 5 C0.25 2.375 0.25 2.375 0 0 Z " fill="#E7650A" transform="translate(360,541)"/>
<path d="M0 0 C1.25541557 3.76624671 0.37061958 5.37188934 -1 9 C-1.99 9 -2.98 9 -4 9 C-2.94124926 5.59687262 -1.99097846 2.98646769 0 0 Z " fill="#DB6D37" transform="translate(455,339)"/>
<path d="M0 0 C0.6875 1.6875 0.6875 1.6875 1 4 C-0.3125 6.75 -0.3125 6.75 -2 9 C-2.66 9 -3.32 9 -4 9 C-2.94124926 5.59687262 -1.99097846 2.98646769 0 0 Z " fill="#E38C40" transform="translate(376,316)"/>
<path d="M0 0 C0.33 0 0.66 0 1 0 C1.125 5.75 1.125 5.75 0 8 C-0.99 8 -1.98 8 -3 8 C-1.125 2.25 -1.125 2.25 0 0 Z " fill="#E99B39" transform="translate(392,285)"/>
<path d="M0 0 C1.10844919 3.32534757 0.84454356 5.62182575 0 9 C-0.66 9 -1.32 9 -2 9 C-2.25 3.375 -2.25 3.375 0 0 Z " fill="#FDA612" transform="translate(517,516)"/>
<path d="M0 0 C-3.85756507 2.15305957 -6.55129785 3.39253254 -11 3 C-7.18178484 -0.02823961 -4.81391924 -1.49397494 0 0 Z " fill="#FCE9CA" transform="translate(398,462)"/>
<path d="M0 0 C0.33 0 0.66 0 1 0 C0.67 2.64 0.34 5.28 0 8 C-0.99 8.33 -1.98 8.66 -3 9 C-2.01 6.03 -1.02 3.06 0 0 Z " fill="#EBA741" transform="translate(399,270)"/>
</svg>
